<svg width="48" height="48" viewBox="0 0 48 48" fill="none" xmlns="http://www.w3.org/2000/svg">
<path d="M23.9999 2.54285C18.776 2.54306 13.7226 4.40208 9.74393 7.78727C5.76526 11.1725 3.12095 15.8629 2.28415 21.0194C1.44735 26.1758 2.47266 31.4618 5.17662 35.9315C7.88058 40.4011 12.0867 43.7628 17.0425 45.415C18.1425 45.6076 18.555 44.9476 18.555 44.37C18.555 43.8476 18.5275 42.115 18.5275 40.2726C13 41.2901 11.57 38.9252 11.13 37.6877C10.6418 36.4841 9.86781 35.4175 8.87501 34.5801C8.10502 34.1676 7.00502 33.1501 8.84749 33.1227C9.55102 33.199 10.2258 33.4438 10.8146 33.8363C11.4034 34.2289 11.8889 34.7576 12.23 35.3776C12.5309 35.9181 12.9355 36.394 13.4206 36.7779C13.9057 37.1618 14.4618 37.4462 15.057 37.6148C15.6523 37.7834 16.2749 37.8329 16.8893 37.7604C17.5037 37.688 18.0977 37.495 18.6374 37.1926C18.7326 36.0742 19.2311 35.0285 20.0399 34.2502C15.145 33.7002 10.03 31.8026 10.03 23.3878C9.99909 21.2013 10.8059 19.0859 12.285 17.4753C11.6124 15.575 11.6911 13.4896 12.505 11.6453C12.505 11.6453 14.3474 11.0678 18.5549 13.9003C22.1548 12.9103 25.9551 12.9103 29.5549 13.9003C33.7623 11.0404 35.6048 11.6453 35.6048 11.6453C36.4188 13.4895 36.4975 15.575 35.8248 17.4753C37.3084 19.0831 38.1159 21.2004 38.0798 23.3878C38.0798 31.8301 32.9373 33.7002 28.0424 34.2502C28.5674 34.7823 28.9718 35.4212 29.228 36.1235C29.4842 36.8258 29.5863 37.5749 29.5274 38.3202C29.5274 41.2627 29.4998 43.6276 29.4998 44.3701C29.4998 44.9476 29.9123 45.6351 31.0123 45.4151C35.9594 43.7494 40.1534 40.3799 42.8459 35.9079C45.5383 31.436 46.5539 26.1527 45.7113 21.0012C44.8687 15.8498 42.2228 11.1654 38.2458 7.78433C34.2689 4.40326 29.2198 2.54556 23.9999 2.54285Z" fill="#FFFEFC"/>
</svg>
